<?xml version="1.0" standalone="no"?>
<!DOCTYPE svg PUBLIC "-//W3C//DTD SVG 20010904//EN"
 "http://www.w3.org/TR/2001/REC-SVG-20010904/DTD/svg10.dtd">
<svg version="1.0" xmlns="http://www.w3.org/2000/svg"
 width="180.000000pt" height="180.000000pt" viewBox="0 0 180.000000 180.000000"
 preserveAspectRatio="xMidYMid meet">
<metadata>
Created by potrace 1.11, written by Peter Selinger 2001-2013
</metadata>
<g transform="translate(0.000000,180.000000) scale(0.100000,-0.100000)"
fill="#000000" stroke="none">
<path d="M822 1681 c-23 -4 -50 -15 -60 -25 -16 -17 -15 -17 23 -10 22 5 103
8 180 8 155 0 227 -15 325 -65 30 -16 67 -33 83 -38 15 -6 27 -18 27 -28 0
-92 22 -186 66 -282 45 -101 46 -105 42 -186 -3 -64 -9 -88 -26 -109 l-21 -27
-6 38 c-11 68 -36 155 -58 197 -53 104 -203 268 -275 300 -34 15 -56 18 -119
13 -75 -5 -190 -33 -180 -43 3 -3 42 2 87 10 159 31 211 17 299 -79 53 -58
132 -170 135 -191 1 -7 9 -21 17 -31 25 -29 29 -39 45 -110 20 -95 30 -248 15
-257 -7 -4 -11 1 -11 13 0 30 -21 71 -37 71 -8 0 -11 -5 -8 -10 4 -6 4 -34 0
-62 -5 -33 -10 -46 -15 -37 -5 7 -6 17 -3 23 4 5 -1 7 -9 3 -13 -4 -17 4 -23
41 -6 41 -39 122 -49 122 -2 0 2 -23 10 -52 16 -62 6 -191 -20 -250 -19 -44
-31 -52 -15 -11 19 50 -11 382 -36 403 -18 15 -25 2 -34 -73 -7 -55 -8 -58
-15 -32 -15 60 -16 61 -26 45 -6 -8 -10 -25 -10 -38 0 -38 -19 -48 -82 -44
-41 3 -58 8 -59 18 -3 35 -19 76 -37 97 -22 24 -3 41 47 42 21 0 37 3 35 7 -2
4 5 10 17 13 26 9 111 72 122 91 14 25 -13 15 -60 -21 -25 -19 -51 -32 -57
-28 -6 3 -8 2 -3 -2 9 -11 -79 -54 -112 -54 -22 -1 -23 -4 -16 -38 12 -59 14
-93 4 -93 -5 0 -11 11 -15 25 -3 14 -10 25 -15 25 -4 0 -11 16 -15 35 -3 19
-10 37 -14 40 -12 7 -27 -45 -24 -82 1 -18 -1 -33 -5 -33 -10 0 -31 116 -31
171 0 41 -13 79 -23 69 -20 -20 -57 -109 -57 -136 0 -19 -4 -34 -10 -34 -5 0
-10 -9 -10 -20 0 -36 -17 -21 -30 27 -11 37 -15 42 -21 27 -4 -10 -5 -32 -3
-49 4 -30 4 -30 -7 -5 -7 16 -9 57 -5 113 4 58 2 87 -5 87 -5 0 -8 -4 -5 -8 3
-5 -7 -22 -22 -39 -15 -16 -37 -43 -49 -58 -22 -28 -22 -28 -56 -11 -19 9 -39
16 -43 16 -4 0 -18 9 -30 21 -18 17 -22 18 -27 5 -4 -9 -1 -16 6 -16 7 0 18
-9 25 -20 7 -12 28 -22 52 -26 22 -4 40 -11 40 -17 0 -46 -51 -137 -76 -137
-16 0 -44 61 -45 98 0 20 -3 31 -6 25 -8 -22 -23 -14 -23 13 l0 27 -17 -24
c-10 -13 -27 -41 -37 -61 -10 -21 -23 -35 -27 -32 -5 3 -6 -2 -3 -10 3 -9 1
-16 -4 -16 -6 0 -15 -19 -20 -42 l-10 -43 -1 37 c-1 48 23 162 48 226 17 44
55 106 137 226 36 52 101 104 145 116 38 11 127 9 189 -3 14 -2 16 -2 5 1
l-20 4 20 8 c30 11 -122 24 -184 15 -81 -11 -155 -77 -244 -217 -49 -78 -81
-156 -112 -275 -14 -54 -33 -111 -41 -128 -15 -28 -15 -25 -10 63 3 50 2 92
-3 92 -10 0 -33 -84 -56 -200 l-14 -75 4 145 c7 252 61 391 230 588 29 35 171
126 237 152 54 22 67 40 29 40 -25 0 -115 -31 -123 -43 -4 -7 -16 -6 -35 1
-48 18 -109 24 -148 13 -46 -12 -85 -47 -85 -75 0 -18 3 -17 30 9 31 30 102
44 154 31 36 -9 33 -21 -16 -54 -42 -30 -68 -54 -127 -122 l-30 -35 -1 64 0
64 -20 -23 c-16 -18 -20 -37 -20 -92 0 -79 -19 -125 -79 -191 -83 -92 -111
-138 -111 -181 l0 -41 38 61 c38 62 92 134 92 123 0 -3 -9 -32 -20 -64 -11
-33 -23 -83 -27 -113 -3 -29 -9 -48 -13 -42 -4 6 -5 22 -2 36 8 44 -24 27 -47
-25 -19 -44 -21 -69 -21 -216 0 -136 3 -170 16 -190 9 -14 20 -25 24 -25 4 0
10 39 13 87 2 49 11 102 18 118 l13 30 3 -30 c6 -46 43 -155 54 -155 5 0 9 26
10 58 0 48 2 54 11 35 6 -13 15 -23 20 -23 4 0 8 -6 8 -14 0 -8 11 -28 25 -44
22 -26 25 -39 25 -109 0 -99 -21 -181 -65 -256 -41 -68 -59 -128 -50 -168 10
-47 35 -37 35 14 0 30 12 68 40 125 50 103 68 164 76 258 7 80 17 93 16 22 -1
-72 -23 -199 -48 -275 -24 -70 -32 -173 -15 -173 14 0 20 24 16 67 -2 22 1 46
6 54 8 13 15 -50 11 -101 -1 -10 9 -17 24 -18 22 -2 24 1 18 21 -11 33 -7 257
5 292 8 22 9 -9 7 -123 -2 -85 -1 -162 1 -173 5 -17 15 -19 93 -19 l87 0 74
50 c41 27 82 50 92 50 9 0 30 18 45 40 32 46 44 49 71 14 20 -25 20 -26 0 -57
-10 -18 -19 -47 -19 -64 0 -29 3 -33 25 -33 30 0 65 50 65 91 0 20 6 28 25 33
14 4 31 4 37 0 6 -4 8 -3 5 3 -8 12 107 68 121 59 6 -4 14 -22 18 -41 4 -25
12 -35 25 -35 10 0 37 -7 60 -17 40 -16 41 -17 36 -55 -4 -32 -2 -39 11 -36
12 2 23 34 42 123 14 66 29 127 32 135 14 36 27 94 23 101 -3 4 3 6 12 5 16
-3 18 -15 16 -109 -1 -59 -6 -114 -11 -124 -6 -10 -13 -44 -17 -75 l-7 -58
100 1 101 1 3 46 3 47 16 -45 16 -45 133 -1 132 -1 -4 71 c-3 44 -13 86 -26
112 -11 22 -31 72 -43 110 -32 97 -33 267 -2 374 l21 75 2 -45 c2 -39 3 -42
11 -20 6 17 7 -1 5 -56 -5 -100 4 -118 33 -71 19 30 21 49 21 162 l0 128 -30
29 c-16 15 -30 32 -30 36 0 5 -13 23 -30 42 -16 18 -28 35 -28 39 1 3 -7 24
-19 46 -27 54 -43 105 -48 156 -7 73 -23 68 -32 -10 -11 -94 -26 -38 -32 118
-4 99 -10 154 -19 163 -6 6 -12 10 -12 8 -1 -3 -3 -33 -5 -67 -2 -34 -9 -72
-16 -84 -11 -22 -13 -21 -26 26 -8 28 -20 67 -26 89 -14 49 -13 61 12 118 28
66 56 83 110 66 23 -7 51 -22 62 -34 19 -20 40 -88 54 -171 12 -74 38 -61 29
14 -17 160 -64 223 -167 223 -44 0 -52 -4 -98 -50 l-51 -51 -36 32 c-42 37
-116 72 -200 94 -62 16 -257 19 -340 6z m-23 -753 c7 -21 16 -38 20 -38 4 0
13 -10 19 -22 6 -13 11 -18 11 -11 1 6 6 24 11 39 l11 27 19 -39 c11 -21 20
-46 20 -56 0 -10 7 -18 16 -18 10 0 14 -6 10 -15 -3 -10 1 -15 13 -15 24 0 35
-28 20 -47 -7 -7 -21 -12 -33 -11 -19 3 -21 -1 -18 -37 6 -79 36 -136 62 -120
9 5 9 10 1 18 -27 27 -6 57 39 57 22 0 46 -35 30 -45 -15 -9 -12 -35 4 -35 7
0 22 12 32 28 15 21 19 46 19 119 0 74 2 89 13 81 7 -6 12 -21 10 -32 -1 -12
2 -22 7 -24 6 -2 13 -12 17 -23 15 -40 33 -14 34 47 0 32 6 70 12 84 9 21 11
9 11 -67 1 -134 -10 -178 -87 -337 -3 -5 7 -7 22 -4 21 4 27 1 32 -18 10 -40
0 -56 -51 -85 -77 -43 -365 -107 -365 -80 0 9 66 43 100 52 24 6 24 6 5 14
-75 32 -92 107 -37 156 35 31 32 37 -8 14 -19 -11 -50 -13 -137 -8 -76 4 -113
3 -113 -4 0 -6 7 -14 16 -17 14 -5 14 -8 0 -28 -22 -31 -20 -38 9 -38 28 0 32
-12 10 -30 -24 -20 -18 -33 14 -27 23 5 34 0 54 -22 l25 -29 -30 -6 c-54 -11
-65 -7 -35 12 15 9 27 20 27 24 0 12 -5 10 -36 -17 -32 -28 -36 -27 -133 16
-35 16 -69 29 -75 29 -20 1 -44 74 -50 155 -3 44 -8 96 -11 115 -6 35 -6 35
21 -12 15 -27 28 -47 30 -45 1 1 -5 31 -14 65 -9 37 -11 67 -6 70 5 4 17 24
26 44 12 26 22 36 33 32 8 -4 22 0 31 7 14 11 15 9 12 -16 -2 -21 -10 -31 -28
-35 -22 -6 -25 -11 -23 -49 3 -57 20 -108 40 -115 22 -9 29 2 17 22 -9 13 -7
21 8 34 11 9 26 14 33 11 17 -6 29 -39 20 -53 -3 -5 -2 -10 4 -10 20 0 40 45
47 108 7 65 15 73 47 45 22 -20 22 -24 1 64 l-7 26 37 -29 c20 -16 36 -32 36
-36 0 -5 4 -8 9 -8 5 0 10 59 10 131 1 73 7 155 13 183 l12 51 11 -65 c6 -36
17 -82 24 -102z m-725 -44 c11 -30 6 -63 -20 -123 -32 -73 -49 -80 -39 -15 8
56 14 74 26 74 4 0 6 7 3 15 -8 19 3 65 15 65 5 0 12 -7 15 -16z m1063 -36
c-3 -8 -6 -5 -6 6 -1 11 2 17 5 13 3 -3 4 -12 1 -19z m-107 -2 c0 -11 -19 -15
-25 -6 -3 5 1 10 9 10 9 0 16 -2 16 -4z m-633 -43 c-17 -18 -22 -8 -11 22 5
12 10 13 17 6 8 -8 6 -16 -6 -28z m1061 -248 c-4 -52 -44 -125 -69 -125 -16 0
-10 51 15 114 13 34 26 70 30 81 7 19 8 19 18 1 6 -10 8 -42 6 -71z m-808
-135 c0 -13 -5 -17 -20 -13 -16 4 -18 9 -9 24 12 23 29 16 29 -11z m61 8 c-10
-28 -29 -35 -37 -13 -7 17 10 35 33 35 9 0 10 -7 4 -22z m826 0 c-3 -8 -6 -5
-6 6 -1 11 2 17 5 13 3 -3 4 -12 1 -19z m-858 -51 c14 -18 4 -27 -31 -27 -26
0 -27 2 -16 20 15 23 31 26 47 7z m71 -61 c0 -8 -7 -19 -15 -26 -12 -10 -16
-9 -21 4 -7 18 13 49 27 40 5 -3 9 -11 9 -18z m896 -211 c2 -44 2 -46 -5 -15
-7 30 -9 31 -11 10 -2 -29 -48 133 -55 195 -4 32 2 23 31 -50 20 -50 38 -112
40 -140z m-463 113 c3 -45 3 -86 1 -90 -5 -8 -75 22 -86 37 -4 6 -6 16 -3 23
2 6 0 12 -5 12 -5 0 -12 9 -15 20 -3 11 -13 20 -21 20 -8 0 -12 5 -9 10 3 6
14 10 23 10 10 0 35 9 57 20 22 11 42 20 46 20 3 0 9 -37 12 -82z m-621 27
c54 -14 66 -21 57 -31 -6 -7 -8 -18 -4 -24 8 -13 35 -13 35 -1 0 11 39 25 47
17 7 -6 -26 -40 -41 -42 -42 -4 -41 -4 -27 -13 11 -7 9 -10 -8 -16 -11 -3 -44
-24 -72 -47 -28 -22 -54 -37 -57 -33 -4 4 2 13 12 21 11 7 16 17 11 21 -4 5
-10 2 -12 -4 -8 -21 -23 -14 -22 10 1 12 -2 41 -6 65 -5 29 -4 42 4 42 6 0 11
5 11 10 0 6 -6 9 -12 8 -8 -2 -14 9 -16 25 -3 25 -1 27 15 19 10 -5 48 -17 85
-27z m409 -33 c-12 -23 -91 -62 -124 -62 -24 0 -37 16 -37 45 0 9 17 16 48 20
26 4 61 10 77 14 37 10 48 5 36 -17z m-496 -172 c3 -5 1 -10 -4 -10 -6 0 -11
5 -11 10 0 6 2 10 4 10 3 0 8 -4 11 -10z"/>
<path d="M1154 219 c-3 -6 -1 -16 5 -22 8 -8 11 -5 11 11 0 24 -5 28 -16 11z"/>
<path d="M1110 180 c0 -5 5 -10 10 -10 6 0 10 5 10 10 0 6 -4 10 -10 10 -5 0
-10 -4 -10 -10z"/>
<path d="M508 233 c6 -2 18 -2 25 0 6 3 1 5 -13 5 -14 0 -19 -2 -12 -5z"/>
<path d="M578 203 c7 -3 16 -2 19 1 4 3 -2 6 -13 5 -11 0 -14 -3 -6 -6z"/>
<path d="M708 1633 c7 -3 16 -2 19 1 4 3 -2 6 -13 5 -11 0 -14 -3 -6 -6z"/>
<path d="M1619 1488 c-3 -33 5 -59 44 -137 22 -46 60 -104 83 -130 22 -25 44
-53 47 -61 3 -8 6 3 6 26 1 33 -5 46 -30 70 -42 40 -91 117 -119 187 -23 58
-29 67 -31 45z"/>
<path d="M1730 1142 c0 -5 9 -19 20 -32 11 -12 22 -31 25 -41 9 -27 25 -23 25
6 0 27 -36 75 -57 75 -7 0 -13 -4 -13 -8z"/>
</g>
</svg>
