<?xml version="1.0" standalone="no"?>
<!DOCTYPE svg PUBLIC "-//W3C//DTD SVG 20010904//EN"
 "http://www.w3.org/TR/2001/REC-SVG-20010904/DTD/svg10.dtd">
<svg version="1.0" xmlns="http://www.w3.org/2000/svg"
 width="180.000000pt" height="180.000000pt" viewBox="0 0 180.000000 180.000000"
 preserveAspectRatio="xMidYMid meet">
<metadata>
Created by potrace 1.11, written by Peter Selinger 2001-2013
</metadata>
<g transform="translate(0.000000,180.000000) scale(0.100000,-0.100000)"
fill="#000000" stroke="none">
<path d="M0 900 l0 -900 900 0 900 0 0 900 0 900 -900 0 -900 0 0 -900z m854
589 c24 1 45 -4 57 -15 11 -10 27 -14 39 -11 13 3 23 0 27 -9 3 -8 17 -14 32
-14 20 0 31 -7 39 -24 7 -17 17 -23 29 -20 13 4 21 -3 30 -26 l12 -32 28 26
c36 34 92 38 120 10 8 -8 21 -14 29 -14 8 0 14 -10 14 -24 0 -13 5 -26 12 -28
7 -3 9 -14 3 -34 -6 -25 -8 -26 -14 -10 -6 17 -8 17 -14 4 -8 -22 18 -31 33
-12 16 19 135 20 127 2 -16 -44 -16 -56 -2 -68 14 -12 11 -19 -31 -61 l-47
-48 27 -7 c15 -3 30 -4 33 -1 8 9 43 -12 43 -25 0 -6 -6 -6 -16 3 -13 10 -25
9 -71 -6 l-56 -19 -24 29 c-13 17 -37 53 -53 80 -16 28 -30 45 -30 38 0 -29
-107 51 -125 95 -8 18 -22 35 -32 39 -10 4 -45 24 -79 44 -33 21 -87 50 -120
65 -64 28 -107 61 -98 76 3 5 13 6 23 2 9 -4 33 -6 55 -5z m-206 -241 c-2 -6
-10 -14 -16 -16 -7 -2 -10 2 -6 12 7 18 28 22 22 4z m59 -3 c-4 -8 -1 -17 4
-21 7 -4 8 -23 5 -49 -6 -34 -4 -42 9 -42 12 0 15 12 15 54 0 29 4 53 9 53 11
0 23 -78 15 -93 -4 -7 -4 -9 1 -5 12 11 31 -15 39 -54 7 -39 29 -64 46 -53 6
4 8 16 4 27 -4 15 -2 19 7 16 8 -3 19 6 26 21 7 17 12 20 12 10 2 -44 51 -91
51 -50 0 32 17 33 18 1 0 -16 -4 -32 -9 -35 -5 -4 -9 -11 -9 -17 0 -7 6 -6 15
2 8 7 15 9 15 4 0 -13 -24 -77 -34 -93 -7 -10 -6 -12 4 -6 24 15 -12 -28 -55
-67 -53 -47 -72 -56 -139 -66 l-56 -9 -39 51 c-59 78 -65 96 -70 209 -1 10 -5
16 -10 12 -5 -3 -12 3 -14 12 -2 10 -3 6 -2 -9 2 -36 -1 -35 -21 3 -20 39 -12
139 12 139 8 0 15 -11 15 -27 2 -24 2 -25 6 -5 7 36 23 25 23 -15 0 -25 -3
-33 -9 -24 -14 21 -22 -4 -11 -33 5 -14 14 -26 20 -26 5 0 10 -8 10 -18 0 -19
18 -42 32 -42 4 0 8 11 8 25 0 14 4 25 10 25 5 0 8 19 5 45 -2 31 0 45 9 45 6
0 13 11 14 25 3 32 9 84 11 90 0 3 4 5 7 5 3 0 4 -7 1 -15z m-111 -52 c-10
-10 -19 5 -10 18 6 11 8 11 12 0 2 -7 1 -15 -2 -18z m46 -13 c-2 -16 -6 -30
-8 -30 -2 0 -4 14 -4 30 0 17 4 30 8 30 5 0 7 -13 4 -30z m167 23 c0 -5 -4
-17 -9 -28 -8 -18 -9 -17 -9 8 -1 15 4 27 9 27 6 0 10 -3 9 -7z m-280 -156 c6
-6 11 -18 10 -26 -2 -35 -38 67 -37 104 0 37 1 36 8 -14 5 -29 13 -58 19 -64z
m500 -88 c-13 -24 -14 -24 -14 5 0 14 5 22 12 19 9 -4 10 -10 2 -24z m-46 6
c-3 -9 -8 -14 -10 -11 -3 3 -2 9 2 15 9 16 15 13 8 -4z m11 -33 c3 -5 -1 -9
-9 -9 -8 0 -12 4 -9 9 3 4 7 8 9 8 2 0 6 -4 9 -8z m-97 -99 c-4 -3 -2 -12 4
-20 7 -8 8 -13 1 -13 -12 0 -23 26 -15 34 4 3 9 6 11 6 3 0 2 -3 -1 -7z m50
-9 c-3 -3 -12 -4 -19 -1 -8 3 -5 6 6 6 11 1 17 -2 13 -5z m-29 -46 c-23 -25
-64 -46 -53 -28 3 6 11 10 17 10 5 0 19 11 30 26 11 14 22 23 25 21 2 -3 -6
-16 -19 -29z m-28 2 c0 -5 -5 -10 -11 -10 -5 0 -7 5 -4 10 3 6 8 10 11 10 2 0
4 -4 4 -10z m-75 -19 c3 -5 0 -13 -6 -17 -7 -4 -9 -3 -5 4 3 6 -2 13 -11 15
-16 4 -16 5 -1 6 9 0 19 -3 23 -8z m158 1 c3 -4 -28 -41 -69 -82 -75 -76 -114
-137 -114 -181 0 -19 -2 -21 -10 -9 -5 8 -10 32 -10 53 0 31 8 47 47 90 26 29
41 46 33 40 -29 -26 -33 -12 -5 17 16 17 24 30 19 30 -6 0 -23 -13 -39 -30
-20 -20 -32 -27 -40 -20 -7 5 -15 7 -18 3 -4 -3 -7 1 -7 10 0 17 34 32 50 22
6 -3 7 0 4 9 -5 13 1 15 34 12 33 -3 45 1 63 20 22 23 53 32 62 16z m362 -137
c196 -185 235 -223 235 -231 0 -4 -9 1 -19 10 -13 12 -21 14 -26 6 -7 -12
-122 107 -118 121 2 5 -3 6 -10 3 -13 -5 -186 166 -207 206 -19 36 5 17 145
-115z m-672 13 c-48 -51 -88 -113 -102 -159 l-9 -34 -1 36 c-1 34 13 81 42
138 14 28 63 61 92 61 16 0 12 -8 -22 -42z m142 -8 c-10 -11 -20 -18 -23 -15
-3 3 3 14 13 25 10 11 20 18 23 15 3 -3 -3 -14 -13 -25z m-45 -40 c0 -3 -9 -6
-20 -6 -23 0 -25 7 -8 24 9 9 14 9 20 -1 4 -6 8 -14 8 -17z m773 -205 c-3 -9
-8 -14 -10 -11 -3 3 -2 9 2 15 9 16 15 13 8 -4z m-825 -222 c-10 -2 -28 -2
-40 0 -13 2 -5 4 17 4 22 1 32 -1 23 -4z m12 -27 c0 -2 -11 -11 -25 -20 -14
-9 -25 -13 -25 -8 0 5 10 14 23 20 27 13 27 13 27 8z m59 -91 c0 -5 -6 1 -13
14 -13 23 -14 23 -25 5 -12 -18 -12 -18 -5 1 4 11 6 31 6 45 -1 21 3 18 18
-15 10 -22 19 -44 19 -50z m-124 47 c-3 -3 -11 0 -18 7 -9 10 -8 11 6 5 10 -3
15 -9 12 -12z m40 -22 c3 -6 -1 -7 -9 -4 -18 7 -21 14 -7 14 6 0 13 -4 16 -10z"/>
<path d="M1342 586 c7 -8 15 -12 17 -11 5 6 -10 25 -20 25 -5 0 -4 -6 3 -14z"/>
<path d="M1436 507 c3 -10 9 -15 12 -12 3 3 0 11 -7 18 -10 9 -11 8 -5 -6z"/>
<path d="M1460 481 c0 -5 7 -12 16 -15 14 -5 15 -4 4 9 -14 17 -20 19 -20 6z"/>
<path d="M1502 430 c9 -13 16 -16 23 -9 7 7 5 13 -5 19 -24 15 -31 11 -18 -10z"/>
</g>
</svg>
